<svg width="446" height="330" fill="none" xmlns="http://www.w3.org/2000/svg"><g clip-path="url(#clip0)"><path d="M384.7 26H28.3v228.3h356.4V26z" fill="#E6E6E6"/><path opacity=".1" d="M374.3 54.7H38.6v86.8h335.7V54.7z" fill="#4CAF50"/><path d="M193.3 67.3h-71v3.8h71v-3.8z" fill="#E6E6E6"/><path d="M231.9 82.2H122.2V86H232v-3.8z" fill="#4CAF50"/><path d="M211.6 96h-89.4v4.2h89.4V96zM174.2 110.1h-52v3.9h52V110zM201 124h-78.8v4.1H201V124zM98.6 65.8h-8.8v8.8h8.8v-8.8z" fill="#E6E6E6"/><path d="M98.6 79.5h-8.8v8.8h8.8v-8.8z" fill="#4CAF50"/><path d="M98.6 93.7h-8.8v8.8h8.8v-8.8zM98.6 107.8h-8.8v8.8h8.8v-8.8zM98.6 122h-8.8v8.4h8.8V122zM327.4 85.7h-29v29h29v-29z" fill="#E6E6E6"/><path opacity=".1" d="M374.3 153.7H38.6V241h335.7v-87.2z" fill="#4CAF50"/><path d="M113.4 161.4h-8.7v8.8h8.7v-8.8z" fill="#E6E6E6"/><path d="M98.6 161.4h-8.8v8.8h8.8v-8.8z" fill="#4CAF50"/><path d="M237 180.5a33 33 0 00-40.5-13.9 33 33 0 00-12.6 9l-2-1.9a35.7 35.7 0 0157.6 5.4l-2.4 1.4z" fill="#E6E6E6"/><path d="M238.4 217.2l-2.3-1.5a33.1 33.1 0 001-35.3l2.4-1.4a36 36 0 01-1.1 38.2zM182.4 221a35.4 35.4 0 01-.3-47.4l2.1 1.9a32.6 32.6 0 00.3 43.7l-2.1 1.9z" fill="#4CAF50"/><path d="M208.8 233a36 36 0 01-26.6-11.9l2-1.8a32.8 32.8 0 0051.8-3.6l2.4 1.6a35.5 35.5 0 01-29.6 15.6z" fill="#4CAF50"/><path d="M327.4 180.5h-29v28.7h29v-28.7zM117.6 199.3h-29v29h29v-29z" fill="#E6E6E6"/><path d="M384.3 25.6h-356V41h356V25.6z" fill="#4CAF50"/><path d="M39.5 36.3a2.9 2.9 0 100-5.7 2.9 2.9 0 000 5.7zM50.2 36.3a2.9 2.9 0 100-5.7 2.9 2.9 0 000 5.7zM61 36.3a2.9 2.9 0 100-5.7 2.9 2.9 0 000 5.7z" fill="#fff"/><path opacity=".1" d="M331.1 134.5h-10.9v10.8h11v-10.8zM331.1 161.3h-10.9v10.9h11v-10.9zM331.1 188.1h-10.9V199h11v-10.9zM331.1 215h-10.9v10.8h11V215zM331.1 241.8h-10.9v10.9h11v-11zM320.2 275.6v-7h11v6l-11 1zM336 330c20.5 0 37.1-2.7 37.1-6s-16.6-6-37.2-6c-20.5 0-37.2 2.7-37.2 6s16.7 6 37.2 6zM168 324c20.6 0 37.3-2.7 37.3-6s-16.7-6-37.2-6c-20.6 0-37.3 2.7-37.3 6s16.7 6 37.3 6z" fill="#4CAF50"/><path d="M211 159.8l-.1-.1c-.6-.6-7.9-10.9-7.9-10.9l-1-2.6a2.6 2.6 0 00.5-1.3c.2-.6.2-1.2 0-1.7l-.1.4-.6-1.3c-1-1.6-2.3-3-3.3-4.6a12.7 12.7 0 01-1.8-8.4v.4c0-.6.2-1.1.3-1.7.1-.7.3-1.3.6-1.9 1-2 2.4-3.9 3.3-6l.7-2.2c.3-1.2.4-2.5.3-3.8l-.1.9c0-3.1-1.3-6-3.5-8.3a20.6 20.6 0 00-11.9-5c-1.8-.2-3.5-.9-5-2a8.7 8.7 0 00-5.7-1 9.4 9.4 0 00-5.8 2.9c-2 2.2-3 5.4-5.3 7.3-1.4 1.1-3.3 1.7-5 2.4-1.6.8-3.2 2-3.7 3.6v.1c-.6 2 .5 4 1 6 .6 2 .6 4.2.7 6.3a239.1 239.1 0 01-.1 10.9c-1 .2-1.8.6-2.6 1-.9.6-4.1 4-4.1 4l-6.3 24h.1v.4h.3c.8.9 3.5 3.6 6.3 5.3l.3 4.7s.3 4.7 4.7 6.7a28 28 0 01-1 10.9c-1 1.9-1.5 4-1.4 6.2 0 0 .5 4 0 6a10 10 0 00-.2 4.3V261s-.3 13.5-1.4 17.1c-1.2 3.7-.9 15.7-.9 15.7s-.7 14.3 1.8 17.2v.5c0 1.1.2 2.3 1.1 2.6 2 .8 4.4 3 5 3.6.4.6 3.2 2.2 6.8 1.8 2.3-.3 4.5-.4 6.8-.3 0 0 1.4-.3 1-2a16 16 0 00-2.2-4l.4.1h.7c1 0 4.5 1.6 5.2 2.7.6 1.1 2.9 2 4.6 2.1a32.5 32.5 0 008.8-.9c.5-.2.7-.8.5-1.5-.2-.9-.6-1.6-1.3-2.2-.6-.5-1.5-1.6-2-2.6l-.2-.2c1-1 3-4.4 3.6-5a446 446 0 00-1.2-31.5v-15.4l2.9-14.5 2-7.7 1.7-11.6s3-13.6 2-14.9c0 0-.7-14-1.5-17.3a38 38 0 01-.1-8.2 1.6 1.6 0 00.4-1.7l-.2-.5v-.2c1.6-.8 3.3-1.3 5.1-1.8 2.9-.5 2.1-2 2.1-2l1.1-2a44.2 44.2 0 00-.4-11c1-.7 2.1-1.5 3.4-2.2 2.5-1.5 2-3 1.7-3.4zm-37.2 97s-2.2 5.4-1.3 6.8c.9 1.4-.1 6.6-.1 6.6l-.8 7.6s-2 14.3-1.2 17.7a119.4 119.4 0 01.7 13.8h-.1c.3-1.2.1-3.8-1.5-9l-.1-21.8s-.3-25 1.7-27.8c2-2.8 2.7-7.6 2.7-7.6l-.7 8.7c-.3 1.8.7 5 .7 5zm-4 53.8v.1l-.2-.1h.2z" fill="url(#paint0_linear)"/><path d="M191.6 319.2c-1.1.4-7.1 1.1-8.8 1-1.7-.3-3.9-1.1-4.5-2.2-.6-1.1-4.2-2.8-5.1-2.7-.4 0-.8 0-1.2-.2l-1.9-.7a3.5 3.5 0 01.2-1.7c.2-.7.6-1.2 1.2-1.5h.2l.8-.3c3-.6 15.4.6 15.4.6l.8 1.4c.6 1 1.4 2.1 2 2.6a4 4 0 011.3 2.2c.2.7 0 1.3-.4 1.5z" fill="#fff"/><path opacity=".1" d="M191.6 319.2c-1.1.4-7.1 1.1-8.8 1-1.7-.3-3.9-1.1-4.5-2.2-.6-1.1-4.2-2.8-5.1-2.7-1 .1-3-.9-3-.9s-.4-1.5.6-2.6l1.9 1.4s5 1.6 6 3c1 1.5 2.7 2.3 5.2 2.5 1.9.1 6.1-.6 8.2-1 0 .7 0 1.3-.5 1.5z" fill="#000"/><path d="M173.3 321.1c-2.3 0-4.5.1-6.8.4-3.5.4-6.3-1.2-6.8-1.8a16 16 0 00-4.8-3.6c-1-.4-1.1-1.6-1.1-2.7v-.1c0-.7.1-1.4.3-2l14.9-.4 1.3 1.7.1.3.8 1a30.7 30.7 0 003 5.2c.5 1.8-1 2-1 2z" fill="#fff"/><path opacity=".1" d="M173.3 321.1c-2.3 0-4.5.1-6.8.4-3.5.4-6.3-1.2-6.8-1.8-.4-.7-2.9-2.9-4.8-3.6-1-.4-1.1-1.6-1.1-2.6 1 .2 3.3.8 4.2 2 1.1 1.4 3.2 3.9 6 4 2.4.2 8.2-.2 10.3-.4.4 1.8-1 2-1 2z" fill="#000"/><path opacity=".1" d="M171.5 311.2c-.1 1.3-.7 1.6-1 1.7h-.3-.2s-13.3 3-16 .6l-.2-.2.3-2.1 14.8-.3 1.3 1.7c.3-.6.7-1.1 1.3-1.4zM188.7 312.9c-.3.3-.5.5-.7.4-.7-.3-6.4-1.2-8.3-.4-1.8.9-8 .1-8 .1v-1.9l.8-.2c3-.6 15.4.6 15.4.6l.8 1.4z" fill="#000"/><path d="M197.4 226.4l-1.7 11.6-2 7.8-2.7 14.6V276s1.8 30.8 1 31.7c-.6.8-3.3 5.6-4 5.3-.7-.3-6.4-1.2-8.3-.4-1.8.8-8 .1-8 .1s-.1-12-.8-15.3c-.7-3.4 1.2-17.7 1.2-17.7l.7-7.8s1-5.2.2-6.6c-.9-1.4 1.2-6.9 1.2-6.9s-1-3-.7-4.9c.3-1.8.7-8.7.7-8.7s-.7 4.8-2.6 7.6c-2 2.8-1.7 28-1.7 28l.1 21.8c3.5 11.5 0 10.4 0 10.4s-13.3 3-16 .6c-2.7-2.4-2-17.5-2-17.5s-.2-12.1.9-15.8c1.1-3.6 1.5-17.1 1.5-17.1v-28.9-19.5-1.2l1.6-4 19-2.4h9.2a90.7 90.7 0 0015.3 4.7c.9 1.3-2 15-2 15z" fill="#4CAF50"/><path opacity=".1" d="M174.2 287.7s4.2 10.2 6.2 10.9c2 .7-6.2-10.9-6.2-10.9zM175.8 302.6s14.2.7 14 2.3c-.1 1.5-14-2.3-14-2.3zM156.8 298.6c.6.5 10.8 1.5 10 2.5-.9 1-9.1 2.8-9.1 2.8l-.9-5.3zM155.1 281.1c0 .4 2.1 13.5 2.7 14 .6.6 5.2 1.2 5.2 1.2l-7.9-15.2z" fill="#000"/><path d="M170.4 102.2c-2 2.3-2.9 5.5-5.2 7.4-1.4 1.1-3.2 1.7-4.9 2.4-1.6.8-3.3 2-3.8 3.8-.5 2 .5 4 1 6 .7 2 .7 4.2.7 6.4v7.8c0 4-.3 8.3-2.5 11.7a90.9 90.9 0 0028.9 3l4-1c2.6-.7 5.3-1 8-1 1.1 0 2.3 0 3.4-.3 1.2-.3 2.3-1 2.6-2.2.2-1-.2-2-.7-3-1-1.7-2.3-3-3.3-4.7a13 13 0 01-.8-11.6c.9-2.1 2.3-4 3.2-6a12.7 12.7 0 00-2.5-13.5c-3.1-3.2-7.5-4.4-11.8-5-1.8-.3-3.5-1-5-2a8.5 8.5 0 00-5.5-1 9.2 9.2 0 00-5.8 2.8z" fill="#3F3D56"/><g opacity=".1"><path opacity=".1" d="M198 124.7c-.9 1.8-1.2 3.8-1 5.8 0-1.4.3-2.8 1-4.1.8-2.1 2.3-4 3.1-6 .8-1.8 1-3.7 1-5.6-.1 1.3-.4 2.6-1 3.9-.8 2-2.3 3.9-3.2 6zM158.4 127.6V126c0-2-.1-4.3-.7-6.3-.4-1.3-1-2.7-1.1-4-.4 1.9.6 3.8 1.1 5.7.6 2 .6 4.2.7 6.3zM200.2 146.3c-1.2.3-2.3.2-3.5.2-2.7 0-5.4.3-8 1l-4 1a94.3 94.3 0 01-28-2.8l-.8 1.5a91 91 0 0028.8 3l4-1c2.6-.7 5.3-1 8-1 1.1 0 2.3 0 3.5-.3 1-.3 2.2-1 2.5-2.2.1-.5.1-1 0-1.6-.4 1.1-1.4 1.8-2.5 2.2z" fill="#000"/></g><path d="M188.9 141.7c-.3.7-1.5 6.1-1.8 6.7-.3.6-1.8 9.6-2 10-.1.6-10.1-2-10.1-2l-6-5.1-6.3-6.2s-.2-5.6 4.4-7.4l1-.3c5.5-1.3 5-18.2 5-18.2l11.3 5s-2 9.8-2 11.7c0 .6.5 1 1.2 1.3 1 .3 2 .4 3 .3 0 0 2.5 3.6 2.3 4.2z" fill="#FBBEBE"/><path d="M209.2 160.2l1.7.5s1.2 1.8-1.7 3.5c-1.7 1-3.5 2.3-5 3.6l-8.4 2.5-1.6-5 7.7-6 7.3 1z" fill="#4CAF50"/><path opacity=".1" d="M209.2 160.2l1.7.5s1.2 1.8-1.7 3.5c-1.7 1-3.5 2.3-5 3.6l-8.4 2.5-1.6-5 7.7-6 7.3 1z" fill="#000"/><path d="M148.6 165l-3.2 3.3s5.8 6.7 10.3 7.1c4.5.5 7.4-5.1 7.4-5.1l-4-6.1-10.5.9z" fill="#4CAF50"/><path opacity=".1" d="M148.6 165l-3.2 3.3s5.8 6.7 10.3 7.1c4.5.5 7.4-5.1 7.4-5.1l-4-6.1-10.5.9zM179.3 130.3a11.2 11.2 0 100-22.5 11.2 11.2 0 000 22.5z" fill="#000"/><path d="M179.3 129.4a11.2 11.2 0 100-22.5 11.2 11.2 0 000 22.5z" fill="#FBBEBE"/><path opacity=".1" d="M199.5 212.7c-2.6.2-5.1.8-7.5 1.6-4.3 1.4-37.2 0-37.6 0v-1.2l1.6-4 19-2.4h9.2s13.8 3.2 15.2 4.6v1.4zM188.9 141.7c-.3.7-1.5 6.1-1.8 6.7-.3.6-1.8 9.6-2 10-.1.6-10.1-2-10.1-2l-6-5.1-6.3-6.2s-.2-5.6 4.4-7.4l11.4 13.1 5-13.6c1 .3 2.1.4 3.2.3 0 0 2.4 3.6 2.2 4.2z" fill="#000"/><path d="M178.5 151.2l-11.7-13.4a4.9 4.9 0 00-4.6-.3c-2.6 1.1-5.8 2-6.6 2.6-.9.6-4 4-4 4l9.4 24.7-4.2 16.3s.7 8.3-1 11.3c-1 2-1.4 4.1-1.3 6.3 0 0 .5 4 0 6-.4 1.5-.4 3-.1 4.4 0 0 33.3 1.4 37.6 0a36 36 0 017.5-1.7s-.8-14-1.6-17.5c-.7-3.3.7-16.2.7-16.2l-1-13.8 5.5-14.2s-3-9-6-10c0 0-5.6-1.3-6.8-2-1.2-.5-4.7-1.1-4.7-1.1l-1.9.6-5.2 14z" fill="#4CAF50"/><path opacity=".1" d="M194.7 163.4l-24.5-1.6c-.6 0-1.1.4-1.2 1l-2.6 38.7c0 .6.4 1.1 1 1.2l24.5 1.6c.6 0 1.1-.4 1.2-1l2.6-38.7c0-.6-.4-1.1-1-1.2z" fill="#000"/><path d="M195.5 162.6l-24.4-1.7c-.7 0-1.2.5-1.2 1l-2.7 38.7c0 .6.5 1.2 1 1.2l24.5 1.7c.7 0 1.2-.4 1.2-1l2.7-38.7c0-.6-.5-1.2-1-1.2z" fill="#3F3D56"/><path d="M194.7 165.6l-23.2-1.6-2.4 35.2 23.2 1.6 2.4-35.2z" fill="#fff"/><path opacity=".1" d="M192.6 174.6l-19-1.3-.3 5.3 19 1.3.3-5.3zM192 195.7l-3-.2-.3 2.7 3 .2.2-2.7zM189 189l-15.5-1-.2 2.7 15.5 1 .2-2.7z" fill="#000"/><path d="M191.8 164.3l-16-1-.3 4.2 16 1 .3-4.2z" fill="#3F3D56"/><path opacity=".1" d="M191.8 164.3l-16-1-.3 4.2 16 1 .3-4.2zM179.9 211.9s-.2 20.8-5.7 32.8c0 0 6.7-15.8 6.7-16.4 0-.7 3.6-7.3 2.6-9.2l-3.6-7.2zM180.2 115.3c-.2-1.8.2-3.7 1.2-5.2a6.5 6.5 0 005 6.8.8.8 0 01-.2-1c.8 1 1.4 2 2.3 2.8.8.8 2.2 1.3 3.2.7 1.4-.8 1.4-2.8 1-4.4-.7-3.3-2.3-6.4-4.6-9a6.2 6.2 0 00-5-2.4c-2.1-.2-4.4 0-6.3 1a17 17 0 00-3 2.1l-5.4 4.4a5 5 0 00-1.3 1.3c-.2.5-.4 1-.4 1.5a7.7 7.7 0 003.6 7.3 5.7 5.7 0 013.4-5.4 1.5 1.5 0 01.5 1.1l1.1-2 .8-1c.7-.3 1.6.2 2.2.7.6.5 1.1 1.2 2 1.3v-3" fill="#000"/><path d="M180.2 115c-.2-2 .2-3.8 1.2-5.3-.3 3 2 6.2 5 6.8a.8.8 0 01-.2-1c.8 1 1.4 2 2.3 2.8.8.8 2.2 1.2 3.2.7 1.4-.8 1.4-2.8 1-4.4-.7-3.3-2.3-6.4-4.6-9a7.5 7.5 0 00-2.6-2 12.1 12.1 0 00-8.7.5c-1 .6-2.1 1.4-3 2.2l-5.4 4.3a5 5 0 00-1.3 1.4c-.2.5-.4 1-.4 1.4a7.7 7.7 0 003.6 7.3 5.7 5.7 0 013.4-5.3 1.5 1.5 0 01.5 1l1.2-2c.1-.3.4-.6.7-.8.7-.4 1.6 0 2.2.6.6.5 1.1 1.2 2 1.3v-3" fill="#3F3D56"/><path d="M185.5 186c-1-.6-17.2 2-17.2 2s-2.7-.8-9.2-1.9c-6.4-1-6.8-7.4-6.8-7.4l-.7-12.6 2.1-2 9.4 6.2v3.6c-.1.4-.4.9-.3 1.2a.4.4 0 00.3.3l9.3 1.6s20-1.4 25 5.4c.4.5.7 1 .9 1.6 1.2 4.7-12 2.4-12.8 2z" fill="#FBBEBE"/><path opacity=".1" d="M198.3 184l-1.3.6s-7.1-.2-11.2-1.6c-4-1.5-8.9-1.2-8.9-1.2s-16.8-3-14.2-6.7a.4.4 0 00.4.4l9.2 1.5s20-1.4 25 5.4c.5.5.8 1 1 1.7z" fill="#000"/><path d="M205.2 161.8l1 7.5c.2.6.5 7.4 0 8.2l-1 2s.7 1.5-2 2c-2.9.6-6.2 2.3-6.2 2.3s-7.2-.2-11.2-1.7c-4-1.5-8.9-1.2-8.9-1.2s-21.3-3.6-12.1-8.1c9-4.5 15.6 1.6 15.6 1.6l10.1-.7s3.8-2.3 4.9-2a4 4 0 002.2-.4v-7.4l7.6-2.1z" fill="#FBBEBE"/><path opacity=".1" d="M153.6 144.7l-2-.1-6.2 24s6.6-1.6 9.5 0c2.9 1.8 8.2 2.1 8.2 2.1l-2-19.2-7.5-6.8z" fill="#000"/><path d="M153.6 144.3l-2-.1-6.2 24s6.6-1.6 9.5 0c2.9 1.7 8.2 2 8.2 2l-2-19.1-7.5-6.8z" fill="#4CAF50"/><path opacity=".1" d="M200.3 149.5l2.8.7s7.2 10.3 7.8 10.9c.5.6-2.7 2.7-4 2.7-1.4 0-8 .7-9.8 2.5-2 1.8-1.1-7.1-1.1-7.3l2.3-5.9 2-3.6z" fill="#000"/><path d="M200.3 149.1l2.8.7s7.2 10.3 7.8 10.9c.5.5-2.7 2.6-4 2.6-1.4 0-8 .8-9.8 2.6-2 1.7-1.1-7.2-1.1-7.4l2.3-5.8 2-3.6z" fill="#4CAF50"/><g opacity=".1"><path opacity=".1" d="M181.4 109.7v-.9c-.5 1-1 1.9-1.1 3v2.8h-.1v0c-.8 0-1.3-.7-2-1.2-.5-.5-1.4-1-2-.6-.4.2-.7.5-.8.9l-1.2 2a1.5 1.5 0 00-.5-1.1 5.7 5.7 0 00-3.4 5.3 7.8 7.8 0 01-3.6-6 7.7 7.7 0 003.6 6.9 5.7 5.7 0 013.4-5.4 1.5 1.5 0 01.5 1.1l1.2-2c.1-.4.4-.7.7-.9.7-.4 1.6 0 2.2.6.6.5 1.1 1.2 2 1.3v-3c.2-1 .5-2 1.1-2.8z" fill="#000"/><path opacity=".1" d="M180.1 113.6l.1-.8v-1 1.8zM191.7 118.1c-1 .6-2.4.1-3.2-.7-1-.7-1.5-1.8-2.3-2.7a.8.8 0 00.2 1l-.2-.1c.8.9 1.4 1.9 2.3 2.7.8.7 2.2 1.2 3.2.7 1-.6 1.4-2 1.3-3.2-.1 1-.5 1.9-1.3 2.3z" fill="#000"/><path opacity=".1" d="M186.2 115.6a6.5 6.5 0 01-4.8-5.7c-.2 3 2 6 5 6.6a.8.8 0 01-.2-1z" fill="#000"/></g><path d="M361.2 207l-.8 3.5s-6.6-3.4-7.8-7.7c-1.2-4.3 2-6 2-6l6.1 2.7.5 7.4z" fill="#fff"/><path opacity=".1" d="M361.2 207l-.8 3.5s-6.6-3.4-7.8-7.7c-1.2-4.3 2-6 2-6l6.1 2.7.5 7.4z" fill="#000"/><path d="M324.1 326.7s-6 2.2-10.3 2.5c-2.2.2-3.4-1.2-4-2.5-.3-.8-.5-1.5-.6-2.3l.5-6 .3-3.3 9-2.3 1.2 3.8.1.3a45.3 45.3 0 012.7 8.5c0 .3.2.5.4.7l.7.6zM365.8 323.6v.6s-13 2.1-15.8 0a7 7 0 00-5.4-1.7s-5.1.2-6-1.5c-.3-.7-.2-2 0-3.4.2-1.2.5-2.5.9-3.7l.2-.2 1.2-1 14.1-.3h.1c0 2.8 4.8 6.1 4.8 6.1 5.1 2 5.9 4.1 6 5.1z" fill="#fff"/><path opacity=".1" d="M365.9 323.6l-.1.6s-13 2.1-15.7 0a7.1 7.1 0 00-5.5-1.7s-5.1.2-6-1.5c-.3-.7-.2-2 0-3.4 2 .2 5 .7 6.2 1.9 1.9 1.7 5 3.5 6.9 3.6l14.2.5zM324.1 326.7s-6 2.2-10.3 2.5c-2.2.2-3.4-1.2-4-2.5 1.6.5 3.7 1 4.8.5a43 43 0 018.8-1.1l.7.6z" fill="#000"/><path d="M333.2 145.4c-5-2-11.5-8.4-10-11.4.4-.8.7-1.6.7-2.5v-3.4c0-1.9-.3-3.8-.6-5.6 0 0 15.7.4 14.8 2.7-.3.7-.3 1.8-.2 3.2a44.7 44.7 0 001 7.1s-1 1.4-1.5 1.4c-.6.1 3 11.4-4.2 8.5z" fill="#CF6F80"/><path opacity=".1" d="M320.3 317h-.1c-4.7-5.7-10.4 1.5-10.4 1.5l-.1-.2.3-3.2 9-2.3 1.2 3.8.1.3zM355.1 312.8s-3.4-.1-5.3 1.5c-1.8 1.6-10.7.4-10.3 0l.2-.6 1.2-1 14.1-.4.1.5z" fill="#000"/><path d="M326.2 268c-.3.6-.5 1.3-.6 2-.3 1.8-.4 3.7-.3 5.5.2 2.7 0 20.6 0 20.6s-3 4.8-4.7 6.5c-1.7 1.7 3.4 4.7 3.4 4.7.8 4.4-3.8 9.3-3.8 9.3-4.7-5.7-10.4 1.4-10.4 1.4s-3.1-5.3-3.9-7.2c-.8-2 3-3.3 4.4-4 1.3-.8-.1-5.4-.1-5.4s-1.1-4-2.5-7.7c-1.3-3.6 1.5-21.9 1.5-21.9s.2-3.2.5-4.3c.2-.8.2-1.7.1-2.5v-.7-.2l1.9-3.7s15.4 5.4 14.5 7.6zM355.1 312.3s-3.4 0-5.3 1.6c-1.8 1.6-10.7.3-10.3 0 .4-.4.4-3 .4-3-5.2-7.1-.8-10-.8-10s-2.3-11.2-2.7-15.3a412 412 0 01-.9-15.2l-.1-3.2 4.2-.8.5-.1 10.3-2a164.3 164.3 0 00.6 5.4v3.2l.4 7.1c-.3.8-.4 1.6-.4 2.4l1.4 14s2.3 7.8 1.6 8.3c-.8.6 1.1 7.6 1.1 7.6z" fill="#4CAF50"/><path opacity=".1" d="M338.1 125.2c-.3.7-.3 1.9-.2 3.2a13 13 0 01-14-.3 47 47 0 00-.6-5.6s15.7.4 14.8 2.7z" fill="#000"/><path d="M344.2 116.7a13.1 13.1 0 01-26.2.4v-.4a13.1 13.1 0 1126.2 0z" fill="#CF6F80"/><path opacity=".1" d="M333.2 145.4c-5-2-11.5-8.4-10-11.4.4-.8.7-1.6.7-2.5l7 5.7 4.2 3.5 3.2-8.2.6 3s-1 1.4-1.5 1.4c-.6.1 3 11.4-4.2 8.5z" fill="#000"/><path d="M351 170.6l-5.7 97-7.5.4-19.5-56.2 3.2-66.8.7-14 8.6 7 4.3 3.6 3.3-8.5 6.2 5.4 6.4 32z" fill="#4CAF50"/><path opacity=".1" d="M326.2 268c-.3.6-.5 1.3-.6 2a55.3 55.3 0 01-15.8-5h-.1v-1l2-3.5s15.4 5.3 14.5 7.5zM339.7 270l-4.2.5-.1-3.3 4.2-.8.1 3.6zM350.9 267.7c-2.7.7-7 1.5-10.7 1v-2.4l10.2-2 .5 3.4z" fill="#000"/><path opacity=".1" d="M340.1 269.1c-15.6 2.7-30-5-30-5l.2-2.6s.3-29.4-.7-31.7c-1-2.3-1.7-13.7-1.2-15.5.6-1.7-2-28.1-2-28.1l-.4-10.7-15.4-6.3 6.9-14.3c1-2 1.7-4.1 2.4-6.2 1.2-3.7 6.7-7.4 6.7-7.4s5.7-3.7 8-3.5c2.2.1 5.2-3.3 5.2-3.3 2.1-5.5 4.1-3 4.1-3l-.1.8c-.8 6.1 12.4 25.4 12.5 25.7l1.3 30.5 1.3 38.5 1.2 42.1z" fill="#000"/><path d="M339.7 269.1c-15.6 2.7-30-5-30-5l.2-2.6s.3-29.4-.7-31.7c-1-2.3-1.7-13.7-1.2-15.5.6-1.8-2-28.1-2-28.1l-.4-10.7-15.4-6.3L297 155c1-2 1.8-4.1 2.4-6.2 1.2-3.7 6.8-7.4 6.8-7.4s5.7-3.7 8-3.5c2.2.1 5.2-3.3 5.2-3.3 2.1-5.5 4.5-3 4.5-3 0 .2-.2.4 0 .8 1.6 6 11.9 25.4 12 25.7l1.3 30.5 1.3 38.6 1.2 42z" fill="#fff"/><path opacity=".1" d="M335.5 158.9a107 107 0 01-10.6-11v-2.2c-.3-.8-2.3-.3-3.8.2l.6-14.1.8.6c1.7 6 12.8 26.1 13 26.5z" fill="#000"/><path d="M336 158c-1.8-.7-10.7-10.9-10.7-10.9v-2.3c-.3-.8-2.2-.3-3.8.3l.7-14.1.7.6c1.7 5.9 12.8 26.1 13 26.4z" fill="#fff"/><path opacity=".1" d="M310.1 209l11-1.2s6.4 12.7 6 15.8c-.5 3.1-1.2 5.9-3.8 5.4-2.6-.5-14 .3-14 .3l.8-20.4z" fill="#000"/><path d="M309.7 208l11-1s6.4 12.7 6 15.8c-.5 3-1.2 5.8-3.8 5.3-2.6-.5-14 .4-14 .4l.8-20.4z" fill="#fff"/><path d="M317.8 202.1s9.8 5.3 10 6.9c.2 1.6-5-.7-6.1-1l-2.3-.4-7.5.2 5.9-5.7z" fill="#CF6F80"/><path opacity=".1" d="M332.8 159.5a1 1 0 100-2 1 1 0 000 2z" fill="#000"/><path d="M332.8 159.1a1 1 0 100-2 1 1 0 000 2z" fill="#3F3D56"/><path opacity=".1" d="M334.7 204.2a1 1 0 100-2 1 1 0 000 2z" fill="#000"/><path d="M334.7 203.8a1 1 0 100-2 1 1 0 000 2z" fill="#3F3D56"/><path opacity=".1" d="M333.8 181.9a1 1 0 100-2 1 1 0 000 2z" fill="#000"/><path d="M333.8 181.5a1 1 0 100-2 1 1 0 000 2z" fill="#3F3D56"/><path d="M357.6 207.4s.7 1 0 1.6c-.7.4 0 1.7 0 1.7s-1.7 1-1 2c.8.8.3 5 .3 5l-2 3.5v5.3c0 4.8-.2 11.4-1.8 14.5l.2 25s-7.3 2.7-13.5 1.8l-1-40s1.4-22.8 1.9-27.1c.3-2.3.4-4.6.3-6.8 0 0-.2-6.9-.9-10l-.8-17.6c0-1.8 0-7 .2-12.1 0-5.5.2-10.7.2-10.7l-1.4-11s1.4-.2 1.8.3l.6.5 11 6.7s4.7 1.8 5.8 4.5c1.1 2.7 1.9 4.6 2.4 5.4.6.7.9 4.3.9 4.3s1.6 6.6 2.9 7.8c1.2 1 2.1 8.2 2.1 8.2l-11.1 8.8s-1 14.6-1.2 15.2c-.2.6 4 13.2 4 13.2z" fill="#fff"/><path d="M358 207.4s.7 1 0 1.6c-.7.4 0 1.7 0 1.7s-1.7 1-1 2c.8.8.4 5 .4 5l-2.1 3.5v5.3c0 4.8-.2 11.4-1.7 14.5l.2 25s-7.4 2.7-13.6 1.8l-.9-40s1.3-22.8 1.8-27.1c.3-2.3.4-4.6.4-6.8 0 0-.2-6.9-1-10l-.8-17.6c0-1.8 0-7 .2-12.1l.2-10.7-1.8-11.2s1.8 0 2.3.5l.6.5c2.4 1.6 10.9 6.7 10.9 6.7s4.7 1.8 5.8 4.5c1.2 2.7 2 4.6 2.5 5.4.5.7.8 4.3.8 4.3s1.7 6.6 3 7.8c1.2 1 2 8.2 2 8.2l-11 8.8s-1 14.6-1.3 15.2c-.2.6 4 13.2 4 13.2z" fill="#fff"/><path opacity=".1" d="M344.6 146.7l1 3-5.3 5.3.3-10.7-1.9-11.2s1.9 0 2.3.6l.6.5 4.5 13-1.5-.5z" fill="#000"/><path d="M344.2 145.9l1 3-5.3 5.3.2-10.7-1.8-11.2s1.8 0 2.3.5c.1.2.3.4.6.5l4.5 13-1.5-.4z" fill="#fff"/><path opacity=".1" d="M344.2 116.7a13 13 0 01-.7 4.1.5.5 0 01-.4-.1 17 17 0 00-6-11.6c-.8-.6-1.8-1-2.8-.8-1.1.1-2.2 1-3.3 1-1.5.1-3-1-4.4-1a4.3 4.3 0 00-3.3 1.5c-.8 1-1.4 2-1.7 3.3a19 19 0 00-1 5.5c0 1.1-.1 2.5-1 2.8a5.7 5.7 0 00-1.5-4.3v-.4a13.1 13.1 0 1126 0z" fill="#000"/><path d="M336.5 96a9 9 0 00-6.3-.5c-1 .3-2 .8-3.1 1-2.3.6-5 0-7 1.3-1 .8-1.7 2-2.3 3.2l-1.6 2.9a19 19 0 00-2 5 6.4 6.4 0 001 5.1c.8 1 2 1.7 2.9 2.7a5.7 5.7 0 011.4 4.3c1-.4 1.1-1.7 1.1-2.8 0-1.9.4-3.8 1-5.6.3-1.1 1-2.2 1.7-3.2a4.3 4.3 0 013.3-1.5c1.5 0 2.9 1.1 4.4 1 1.1-.1 2.2-.9 3.3-1 1-.1 2 .2 2.9.8.8.6 1.5 1.3 2 2.2 2.1 2.7 3.8 6 4 9.4.4.3 1-.1 1.2-.6.2-.5.2-1 .5-1.5.3-.6 1-.9 1.4-1.3 1.2-1 1.5-2.7 1.4-4.3 0-1.6-.3-3.2 0-4.7.1-1 .6-1.9.8-2.8.2-1 .2-2-.3-2.8-.8-1.2-2.4-1.4-3.8-1.5-1.6-.2-3 0-4-1.3a15 15 0 00-1.6-2l-2.3-1.5z" fill="#512E4E"/><path opacity=".1" d="M295 176.6l-4-7.4-1.2 11.4s.7 5 .5 5.9c-.1.7 2.9 7.7 2.9 7.7s10 17.8 14 18.7l13.8-9.8-3.6-4.7s-1.3-.5-1.6 0c0 0-6.8-11.7-7.5-12.5-.7-.8-.6-2.5-.6-2.5s-1-1.2-.7-2.2c.4-1-2-4.7-2-4.7l2.2-2-12.2 2.1z" fill="#000"/><path d="M291.2 168.4l-1 .8-1.3 11.4s.7 5 .6 5.9a56.1 56.1 0 0017 26.4l13.7-9.8-3.7-4.7s-1.2-.5-1.5 0c0 0-6.8-11.7-7.5-12.5-.7-.8-.6-2.5-.6-2.5s-1-1.2-.7-2.2c.4-1-2-4.7-2-4.7l2.1-2-15-6.1z" fill="#fff"/><path opacity=".1" d="M356.7 213c.7 1 .2 5.2.2 5.2l-2 3.4v5.3l-3.5 1.2a2.1 2.1 0 01-2.7-2.1l.6-19.8 8.3 3.2c-.7.5 0 1.7 0 1.7s-1.7 1-1 2z" fill="#000"/><path d="M357 212.6c.8 1 .4 5.1.4 5.1l-2.1 3.5v5.3l-3.5 1.1a2 2 0 01-1.9-.3 2 2 0 01-.8-1.7l.6-19.8 8.3 3.2c-.7.5 0 1.7 0 1.7s-1.7 1-1 2z" fill="#fff"/><path d="M359.8 203.2s-.5 3.6-2 3.8c-1.4.2-2 5.8-3.4 5.6-1.4-.2-.5-5.2-.4-6.2 0-1-1.5-5-.4-5.9 1.2-.9 5 0 5 0l1.2 2.7z" fill="#CF6F80"/><path opacity=".1" d="M362.8 175.6l2.6-5.4s1.1 4 1.1 6.3c0 2.1 1.5 2.4 1.5 2.4s1.6 1.9.7 3.3c-.8 1.4-1.2 4.8-1.2 4.8s.3 6.6-1 7.5c-1.2 1-1.5 3.1-1.5 3.1s-2.3 4.2-2.2 5.2c0 1-3.3 7.6-3.3 7.6s1.6-8.3-7.8-11.8c0 0 0-2.9.7-3.6.7-.8 1.8-1.2 1-5-.6-4-.1-8.6-.1-9.6s2-6.7 2-6.7l7.5 1.9z" fill="#000"/><path d="M364 169.4l2.3.8s1 4 1 6.3c0 2.1 1.5 2.4 1.5 2.4s1.6 1.9.8 3.3a16 16 0 00-1.2 4.8s.3 6.6-1 7.5c-1.3 1-1.5 3.1-1.5 3.1s-2.3 4.2-2.3 5.2c.1 1-3.2 7.6-3.2 7.6s1.6-8.3-7.8-11.8c0 0 0-2.9.6-3.6.7-.8 1.8-1.2 1.1-5-.7-4-.2-8.6-.2-9.6s2.1-6.7 2.1-6.7l7.8-4.3z" fill="#fff"/><path opacity=".1" d="M312.8 308.2s3.7-2.3 6.1-.6c2.5 1.7-6 .6-6 .6zM341.5 301s3.3-.4 6 2.6c2.8 3-6-2.6-6-2.6z" fill="#000"/><g opacity=".1"><path opacity=".1" d="M346.3 116c-.5.5-1.1.8-1.4 1.3-.3.5-.3 1-.5 1.5s-.8 1-1.3.6a17 17 0 00-6-11.6c-.8-.6-1.8-.9-2.8-.8-1.1.2-2.1 1-3.3 1-1.5.2-2.9-.9-4.4-1a4.3 4.3 0 00-3.3 1.6c-.8 1-1.4 2-1.7 3.2a19 19 0 00-1 5.6c0 1 0 2.4-1 2.8v.8c1-.4 1-1.7 1-2.8 0-1.9.4-3.8 1-5.5.4-1.2 1-2.3 1.8-3.3a4.3 4.3 0 013.2-1.5c1.5 0 2.9 1.1 4.4 1 1.2 0 2.2-.9 3.3-1 1-.1 2 .2 2.9.8.8.6 1.5 1.3 2 2.2 2.2 2.7 3.8 6 4 9.4.4.3 1-.1 1.2-.6.2-.5.2-1 .5-1.5.3-.6 1-.9 1.4-1.3 1.2-1 1.5-2.7 1.4-4.3v-.1c0 1.3-.4 2.7-1.4 3.6zM318 115.8c-.8-1-2-1.6-2.8-2.6-.7-1-1-2-1.1-3.2-.1 1.5.3 2.9 1.1 4 .8 1 2 1.7 2.9 2.7.8.9 1.3 2.1 1.4 3.4a5.7 5.7 0 00-1.4-4.3zM348.5 104.3c-.3.9-.7 1.8-.8 2.7l-.2 2 .2-1.1c.1-1 .5-1.9.8-2.8l.1-1.6-.1.8z" fill="#000"/></g></g><defs><linearGradient id="paint0_linear" x1="177.8" y1="319.6" x2="177.8" y2="98.6" gradientUnits="userSpaceOnUse"><stop stop-color="gray" stop-opacity=".3"/><stop offset=".5" stop-color="gray" stop-opacity=".1"/><stop offset="1" stop-color="gray" stop-opacity=".1"/></linearGradient><clipPath id="clip0"><rect width="446" height="330" fill="#fff"/></clipPath></defs></svg>