<svg width="472" height="538" fill="none" xmlns="http://www.w3.org/2000/svg"><path d="M271.1 514.4c0 7.9-89.2 8.7-199 14.2S-127 522.3-127 514.4c0-7.8 89.7-23.5 199-14.1 109.9 9.4 199.1 6.3 199.1 14.1zM472 .7h-630v403.5h630V.7z" fill="#E6E6E6"/><path opacity=".1" d="M453.8 51.4h-593.6v153.4h593.6V51.4z" fill="#4CAF50"/><path d="M133.7 73.7H8.1v6.7h125.6v-6.7z" fill="#E6E6E6"/><path d="M201.9 100H8.1v6.8H202V100z" fill="#4CAF50"/><path d="M166.1 124.4H8.1v7.4h158v-7.4zM100 149.4H8v6.8H100v-6.8zM147.2 173.7H8.2v7.5h139v-7.5zM370.7 106.1h-51.3v51.4h51.3v-51.4z" fill="#E6E6E6"/><path opacity=".1" d="M453.8 226.5h-593.6v154h593.6v-154z" fill="#4CAF50"/><path d="M211.1 273.8a58.4 58.4 0 00-71.7-24.6 58.2 58.2 0 00-22.2 15.8l-3.8-3.3a63.2 63.2 0 0181.4-11.9 63.4 63.4 0 0120.6 21.4l-4.3 2.6z" fill="#E6E6E6"/><path d="M213.5 338.7l-4.2-2.8a58.6 58.6 0 001.8-62.3l4.3-2.5a63.6 63.6 0 01-2 67.6zM114.4 345.4a62.6 62.6 0 01-.5-83.8l3.8 3.3a57.6 57.6 0 00.5 77.2l-3.8 3.3z" fill="#4CAF50"/><path d="M161 366.4a63.5 63.5 0 01-46.9-20.8l3.7-3.3a58 58 0 0072.3 11.4 57.9 57.9 0 0019.2-17.7l4 2.7a62.8 62.8 0 01-52.2 27.7z" fill="#4CAF50"/><path d="M370.7 273.8h-51.3v50.7h51.3v-50.7zM0 306.9h-51.3v51.4H0v-51.4z" fill="#E6E6E6"/><path d="M471.3 0H-158v27h629.3V0z" fill="#4CAF50"/><path opacity=".1" d="M377.4 192.4h-19.2v19.2h19.2v-19.2zM377.4 239.8h-19.2V259h19.2v-19.2zM377.4 287.2h-19.2v19.2h19.2v-19.2zM377.4 334.6h-19.2V354h19.2v-19.3zM377.4 382h-19.2v19.3h19.2V382zM358.2 441.9v-12.4h19.2V440l-19.2 1.8zM385.9 538c36.3 0 65.8-4.7 65.8-10.6 0-5.8-29.5-10.6-65.8-10.6-36.4 0-65.8 4.8-65.8 10.6 0 5.9 29.4 10.6 65.8 10.6zM89.1 527.4c36.4 0 65.8-4.7 65.8-10.6 0-5.8-29.4-10.5-65.8-10.5-36.3 0-65.8 4.7-65.8 10.5 0 5.9 29.5 10.6 65.8 10.6z" fill="#4CAF50"/><path d="M164.9 237.1l-.1-.2c-1-1-13.9-19.1-13.9-19.1s-.6-2-1.7-4.7a4.6 4.6 0 00.9-2.2v-.2c.3-1 .3-2 0-2.8l-.3.7-1-2.3c-1.7-3-4.2-5.4-6-8.3a22.4 22.4 0 01-3-14.8v.8c0-1 .2-2 .4-3l1.1-3.4c1.7-3.7 4.3-6.9 5.8-10.6.6-1.2 1-2.5 1.2-3.9.6-2.2.8-4.5.6-6.8l-.1 1.7a22 22 0 00-6.2-14.7 36.5 36.5 0 00-21-8.8c-3.2-.4-6.3-1.6-8.9-3.4-3-1.9-6.7-2.4-10-2-4 .5-7.6 2.3-10.3 5.1-3.6 4-5.2 9.6-9.4 13-2.5 2-5.8 3-8.7 4.3-3 1.4-5.8 3.4-6.7 6.3v.2c-1 3.6.8 7.1 1.8 10.6 1 3.6 1.1 7.5 1.2 11.2a422.7 422.7 0 01-.2 19.1c-1.6.5-3.1 1.1-4.6 1.9-1.5 1-7.2 7-7.2 7l-11 42.4v.8l.5-.2a57 57 0 0011.3 9.5l.5 8.3s.5 8.4 8.2 11.8c.2 2.9.7 14.6-1.8 19.3a21.6 21.6 0 00-2.4 11s.9 7-.1 10.7c-.6 2.5-.7 5-.2 7.6V416S63 440 61 446.3c-2 6.4-1.5 27.7-1.5 27.7s-1.3 25.4 3.2 30.4v1c-.1 1.9.3 4 2 4.6 3.3 1.3 7.8 5.2 8.6 6.3.8 1 5.8 3.9 12.2 3.1 4-.4 8-.6 12-.5 0 0 2.6-.5 1.7-3.6-.5-2-2.5-5-3.9-7l.8.2h1.2c1.7-.1 8 2.8 9.2 4.8 1.1 1.9 5 3.4 8 3.8a57.5 57.5 0 0015.8-1.7c.9-.3 1-1.4.8-2.6-.3-1.6-1.1-3-2.3-4a19 19 0 01-3.6-4.5l-.3-.4c1.9-1.8 5.3-7.7 6.3-9 1.2-1.4-2-55.6-2-55.6v-27.1l5-25.7 3.5-13.6 3-20.5s5.3-24 3.7-26.3c0 0-1.4-24.8-2.8-30.7-.6-2.6-.4-8.6 0-14.4a2.8 2.8 0 00.6-3l-.4-1v-.2c3-1.4 6-2.4 9.1-3.1 5-1 3.8-3.6 3.8-3.6s1.1-2.3 1.9-3.6a78.3 78.3 0 00-.8-19.5l6-3.9c4.4-2.6 3.4-5.3 3-6zM99.2 408.5s-3.7 9.6-2.2 12.1-.3 11.6-.3 11.6l-1.2 13.6S91.9 471 93.2 477c1 4.6 1.3 18.5 1.5 24.3l-.3.1-.2.1c.6-2.3.4-6.9-2.5-16.2l-.2-38.3s-.5-44.2 3-49.2 4.7-13.3 4.7-13.3-.7 12.1-1.2 15.3c-.5 3.2 1.2 8.7 1.2 8.7zm-7 95.2l-.1.2-.2-.2h.3z" fill="url(#paint0_linear)"/><path d="M130.7 518.9a67 67 0 01-15.5 1.7c-3-.4-6.9-1.9-8-3.9-1-2-7.3-4.9-9-4.7-.7 0-1.4 0-2-.3a25 25 0 01-3.4-1.3 6.3 6.3 0 01.2-3c.4-1.2 1.2-2 2.3-2.6h.2c.5-.3 1-.4 1.5-.5 5.3-1 27.2 1 27.2 1l1.4 2.5c1 1.7 2.5 3.7 3.6 4.5a7 7 0 012.3 4c.3 1.2 0 2.3-.8 2.6z" fill="#fff"/><path opacity=".1" d="M130.7 518.9a67 67 0 01-15.5 1.7c-3-.4-6.9-2-8-3.9-1.1-2-7.3-4.9-9-4.7-1.7.2-5.4-1.6-5.4-1.6s-.6-2.7 1.1-4.5l3.4 2.4s9 2.8 10.7 5.4c1.7 2.6 4.7 4 9.1 4.3 3.3.2 10.9-1 14.4-1.7.3 1.2 0 2.3-.8 2.6z" fill="#000"/><path d="M98.4 522.3c-4 0-8 .1-12 .6-6.3.7-11.1-2-12-3.2-.8-1.1-5.2-5-8.5-6.3-1.7-.7-2-2.7-2-4.7v-.3c0-1.2.2-2.4.5-3.6l26.3-.6 2.3 3.1.3.5 1.4 1.9a55 55 0 005.3 9c.9 3.2-1.6 3.6-1.6 3.6z" fill="#fff"/><path opacity=".1" d="M98.4 522.3c-4 0-8 .1-12 .6-6.3.7-11.1-2-12-3.2-.8-1.1-5.2-5-8.5-6.3-1.7-.6-2-2.7-2-4.6 1.9.4 5.8 1.5 7.4 3.5 2 2.6 5.6 7 10.8 7.2 4.1.3 14.3-.5 18-.8.8 3.2-1.7 3.6-1.7 3.6z" fill="#000"/><path opacity=".1" d="M95.2 504.8c-.3 2.3-1.2 2.9-1.9 3h-.5-.2s-23.6 5.2-28.4 1l-.3-.4c0-1.2.2-2.4.5-3.6l26.3-.6 2.3 3.1c.4-1.1 1.2-2 2.2-2.5zM125.6 507.7c-.5.6-1 1-1.2.8-1.3-.5-11.4-2.2-14.7-.7-3.2 1.5-14.1.2-14.1.2l-.1-3.3 1.5-.5c5.3-1 27.2 1 27.2 1l1.4 2.5z" fill="#000"/><path d="M141 354.8l-3 20.7-3.4 13.7-5 25.8v27.4s3.2 54.5 2 56c-1.2 1.4-6 10-7.2 9.4-1.2-.5-11.4-2.2-14.7-.7-3.2 1.5-14.1.2-14.1.2s-.3-21.1-1.5-27c-1.3-6 2.2-31.4 2.2-31.4l1.2-13.7s1.8-9.2.3-11.7 2.2-12.2 2.2-12.2-1.7-5.4-1.2-8.7c.5-3.2 1.2-15.4 1.2-15.4s-1.2 8.5-4.7 13.4c-3.4 5-3 49.5-3 49.5l.3 38.6c6.2 20.4 0 18.4 0 18.4s-23.6 5.2-28.4 1c-4.8-4.3-3.4-31-3.4-31s-.5-21.3 1.5-27.8c2-6.4 2.6-30.3 2.6-30.3v-51-34.5-2.2l2.9-7 33.7-4.3h16.2s24.3 5.7 26.8 8.2l.1.1c1.7 2.4-3.6 26.5-3.6 26.5z" fill="#00692C"/><path opacity=".1" d="M100 463.3s7.5 17.9 11 19.1c3.5 1.3-11-19.1-11-19.1zM102.8 489.6s25 1.3 24.8 4c-.2 2.8-24.8-4-24.8-4zM69.2 482.5c1 1 19.2 2.7 17.7 4.4-1.5 1.7-16.2 5-16.2 5l-1.5-9.4zM66.3 451.6c0 .7 3.7 23.9 4.7 24.9s9.2 2 9.2 2l-14-27z" fill="#000"/><path d="M93.3 135.4c-3.5 4-5 9.6-9.2 13-2.6 2-5.7 3-8.7 4.4-2.9 1.3-5.8 3.4-6.7 6.6-1 3.5 1 7 2 10.6 1 3.6 1 7.4 1 11.2.1 4.6.2 9.2.1 13.8a40 40 0 01-4.5 20.8 160.7 160.7 0 0051 5.3c2.4-.5 4.8-1 7-1.8a54 54 0 0114.2-1.8c2 0 4.2.1 6.2-.4s3.9-2 4.4-4c.5-1.7-.2-3.6-1.1-5.3-1.7-2.9-4-5.4-5.9-8.3a22.9 22.9 0 01-1.4-20.5c1.6-3.7 4.1-7 5.7-10.7a22.5 22.5 0 00-4.5-23.8 35.8 35.8 0 00-20.8-9c-3.1-.3-6.1-1.5-8.7-3.3a15 15 0 00-10-2c-3.8.5-7.4 2.3-10 5.2z" fill="#3F3D56"/><g opacity=".1" fill="#000"><path opacity=".1" d="M141.9 175c-1.4 3.3-2 6.9-1.7 10.4.1-2.5.7-5 1.7-7.3 1.6-3.7 4.1-7 5.7-10.7 1.3-3 1.8-6.4 1.6-9.8a21 21 0 01-1.6 6.8c-1.6 3.8-4.1 7-5.7 10.7zM72 180.3a626.2 626.2 0 010-3 44 44 0 00-1.2-11.2c-.7-2.3-1.7-4.7-2-7-.6 3.3 1.1 6.7 2 10 1 3.6 1.1 7.4 1.2 11.2zM145.9 213.2c-2 .6-4.1.5-6.2.4-4.7 0-9.5.6-14 1.8l-7.1 1.8a166.9 166.9 0 01-49.6-4.9 23 23 0 01-1.4 2.6 161 161 0 0051 5.3 70 70 0 007-1.8c4.6-1.2 9.3-1.8 14-1.8 2.2 0 4.3.1 6.3-.4 2-.6 3.9-2 4.4-4 .3-.9.2-1.8 0-2.7-.6 1.9-2.5 3.2-4.4 3.7z"/></g><path d="M125.9 205.2c-.5 1.1-2.6 10.8-3.1 11.8s-3.2 17-3.5 17.8c-.2 1-18-3.7-18-3.7l-10.6-9-11-10.9s-.3-9.9 7.7-13l1.7-.5c9.8-2.4 8.8-32.3 8.8-32.3l20.2 8.7s-3.8 17.5-3.6 20.8c0 1.2.9 1.9 2 2.3 1.8.5 3.7.7 5.5.6 0 0 4.4 6.3 3.9 7.4z" fill="#FBBEBE"/><path d="M162 238l2.8.7s2 3.2-2.9 6.2c-3.1 2-6.2 4-9 6.3l-14.7 4.5-2.9-8.9 13.7-10.4 13 1.5z" fill="#4CAF50"/><path opacity=".1" d="M162 238l2.8.7s2 3.2-2.9 6.2c-3.1 2-6.2 4-9 6.3l-14.7 4.5-2.9-8.9 13.7-10.4 13 1.5z" fill="#000"/><path d="M54.7 246.5l-5.7 5.6s10.3 12 18.3 12.7c7.9.7 13-9 13-9l-6.9-10.9-18.7 1.6z" fill="#4CAF50"/><path opacity=".1" d="M54.7 246.5l-5.7 5.6s10.3 12 18.3 12.7c7.9.7 13-9 13-9l-6.9-10.9-18.7 1.6zM109 185a19.9 19.9 0 100-39.8 19.9 19.9 0 000 39.8z" fill="#000"/><path d="M109 183.5a19.9 19.9 0 100-39.8 19.9 19.9 0 000 39.8z" fill="#FBBEBE"/><path opacity=".1" d="M144.6 330.6a64 64 0 00-13.2 3c-7.5 2.4-65.7 0-66.5 0v-2.3l2.9-7 33.7-4.3h16.2s24.3 5.7 26.8 8.2l.1 2.4zM125.9 205.2c-.5 1.1-2.6 10.8-3.1 11.8s-3.2 17-3.5 17.8c-.2 1-18-3.7-18-3.7l-10.6-9-11-10.9s-.3-9.9 7.7-13l20.1 23 9-24c1.8.5 3.7.7 5.5.6 0 0 4.4 6.3 3.9 7.4z" fill="#000"/><path d="M107.5 222L87 198.4a8.6 8.6 0 00-8.2-.6c-4.6 2-10.3 3.6-11.8 4.6-1.5 1-7 7.1-7 7.1l16.6 43.6-7.4 28.7s1.2 14.7-1.7 20a22 22 0 00-2.4 11.1s1 7.1 0 10.8a18 18 0 00-.2 7.6s59 2.5 66.5 0c4.3-1.4 8.7-2.4 13.3-3 0 0-1.4-24.8-2.8-30.8-1.3-6 1.2-28.7 1.2-28.7l-1.6-24.4 9.6-25s-5.2-16-10.7-17.7c0 0-10-2.3-12-3.4-2.1-1.2-8.3-2.2-8.3-2.2l-3.3 1.1-9.3 24.8z" fill="#00692C"/><path opacity=".1" d="M136.2 243.6l-43.3-3c-1 0-2 .8-2 1.9l-4.7 68.3c0 1.1.7 2 1.8 2.1l43.3 3c1 0 2-.8 2-1.9l4.7-68.3c0-1.1-.7-2-1.8-2.1z" fill="#000"/><path d="M137.7 242.1l-43.3-3c-1 0-2 .8-2 1.9l-4.7 68.3c-.1 1.1.7 2 1.8 2.1l43.2 3c1.1 0 2-.8 2.2-1.9l4.6-68.3c0-1-.8-2-1.8-2.1z" fill="#3F3D56"/><path d="M136.2 247.5l-41-2.8-4.3 62.2 41.1 2.7 4.2-62.1z" fill="#fff"/><path opacity=".1" d="M132.5 263.3L99 261l-.7 9.3 33.6 2.4.6-9.4zM131.3 300.6l-5.3-.4-.3 4.9 5.3.3.3-4.8zM126 288.8l-27.2-1.9-.3 4.9 27.2 1.9.4-5z" fill="#000"/><path d="M131.1 245.1l-28.4-2-.5 7.6 28.4 2 .5-7.6z" fill="#3F3D56"/><path opacity=".1" d="M131.1 245.1l-28.4-2-.5 7.6 28.4 2 .5-7.6zM110 329.2s-.3 36.8-10 58c0 0 11.7-27.9 11.7-29 0-1.1 6.5-12.8 4.8-16.3l-6.5-12.7zM110.5 158.6c-.4-3.3.4-6.6 2.3-9.3a11.4 11.4 0 008.8 12 1.5 1.5 0 01-.4-1.6c1.3 1.6 2.4 3.4 4 4.8 1.5 1.4 3.9 2.2 5.7 1.2 2.5-1.3 2.6-4.9 2-7.6a36.1 36.1 0 00-8.4-16 11 11 0 00-8.7-4.3c-3.8-.3-7.8 0-11.3 1.7-1.9 1-3.7 2.3-5.4 3.8l-9.4 7.7a9 9 0 00-2.3 2.4c-.4.8-.7 1.7-.7 2.6a13.7 13.7 0 006.3 12.9 10 10 0 016-9.5 2.6 2.6 0 011 2l2-3.6a4 4 0 011.4-1.6c1.2-.7 2.7.1 3.8 1 1 1 2 2.2 3.4 2.4v-5.3" fill="#000"/><path d="M110.5 157.8c-.4-3.2.4-6.5 2.3-9.2-.6 5.4 3.4 11 8.8 12a1.5 1.5 0 01-.4-1.6c1.3 1.5 2.4 3.4 4 4.8 1.5 1.4 3.9 2.2 5.7 1.2 2.5-1.4 2.6-5 2-7.7a36.1 36.1 0 00-8.4-15.8 13.3 13.3 0 00-4.6-3.7 21.4 21.4 0 00-15.3 1c-2 1-3.8 2.3-5.4 3.8l-9.5 7.7c-.9.6-1.7 1.5-2.3 2.4-.4.8-.6 1.7-.7 2.5a13.7 13.7 0 006.4 13 10.1 10.1 0 016-9.5 2.7 2.7 0 011 2l2-3.6c.2-.7.7-1.2 1.3-1.6 1.2-.7 2.7 0 3.8 1 1 1 2 2.2 3.5 2.3v-5.3" fill="#3F3D56"/><path d="M120 283.3c-1.8-.9-30.5 3.6-30.5 3.6s-4.7-1.3-16.2-3.2c-11.4-1.9-12.1-13-12.1-13l-1.3-22.4 3.9-3.4 16.5 10.8s.3 5.5 0 6.4c-.1.7-.6 1.5-.5 2a.7.7 0 00.5.7c1.1.3 16.4 2.7 16.4 2.7s35.4-2.4 44.2 9.6a9 9 0 011.6 2.9c2.2 8.2-21 4.1-22.6 3.3z" fill="#FBBEBE"/><path opacity=".1" d="M142.5 280l-2.2 1s-12.6-.3-19.8-2.9c-7-2.6-15.7-2-15.7-2s-29.7-5.2-25-11.9a.7.7 0 00.5.6c1 .3 16.4 2.8 16.4 2.8s35.4-2.4 44.2 9.5a9 9 0 011.6 3z" fill="#000"/><path d="M154.8 240.7l1.9 13.3c.1 1 .7 13 0 14.4l-1.9 3.6s1.3 2.6-3.7 3.6-10.8 4-10.8 4-12.7-.4-19.7-3c-7.1-2.6-15.8-2.1-15.8-2.1S67 268 83.3 260a24.8 24.8 0 0127.6 2.8l18-1s6.7-4.2 8.5-3.8c1.4.1 2.7 0 3.9-.6l.1-13.1 13.4-3.7z" fill="#FBBEBE"/><path opacity=".1" d="M63.5 210.4l-3.6-.1-11 42.5s11.9-3 17 0a41 41 0 0014.4 3.6l-3.5-33.9-13.3-12z" fill="#000"/><path d="M63.5 209.7l-3.6-.2-11 42.6s11.9-3 17 0a41 41 0 0014.4 3.6l-3.5-34-13.3-12z" fill="#00692C"/><path opacity=".1" d="M146.1 219l5 1.2s12.7 18.2 13.7 19.2-4.8 4.8-7.1 4.8c-2.4 0-14 1.3-17.3 4.4-3.3 3.2-2-12.6-2-13 0-.3 4.2-10.2 4.2-10.2l3.5-6.4z" fill="#000"/><path d="M146.1 218.3l5 1.1s12.7 18.3 13.7 19.3-4.8 4.7-7.1 4.7c-2.4 0-14 1.4-17.3 4.5-3.3 3.1-2-12.6-2-13 0-.3 4.3-10.3 4.3-10.3l3.4-6.3z" fill="#00692C"/><g opacity=".1" fill="#000"><path opacity=".1" d="M112.7 148.6v-1.5c-1 1.5-1.7 3.3-2 5v5.3h-.1V157.3c-1.4-.2-2.4-1.3-3.4-2.2-1-1-2.6-1.8-3.8-1-.6.3-1 .9-1.4 1.5l-2 3.6a2.6 2.6 0 00-.9-2 10 10 0 00-6 9.5 13.7 13.7 0 01-6.4-10.8 13.7 13.7 0 006.4 12.3 10.1 10.1 0 016-9.5 2.6 2.6 0 011 2l2-3.6c.2-.6.7-1.2 1.3-1.6 1.2-.7 2.7.1 3.8 1 1 1 2 2.2 3.5 2.4v-5.2c.3-1.8 1-3.5 2-5z"/><path opacity=".1" d="M110.5 155.4l.1-1.3v-1.9c-.1 1-.2 2.2-.1 3.2zM131 163.5c-2 1-4.3.2-5.8-1.2-1.6-1.4-2.7-3.3-4-4.8a1.5 1.5 0 00.4 1.6h-.4c1.3 1.5 2.4 3.3 4 4.6 1.5 1.4 3.9 2.2 5.7 1.3 1.9-1 2.4-3.3 2.2-5.6 0 1.8-.7 3.3-2.2 4.1z"/><path opacity=".1" d="M121.2 159a11.5 11.5 0 01-8.5-10 11.4 11.4 0 008.9 11.6 1.5 1.5 0 01-.4-1.6z"/></g><path d="M430.6 320.5l-1.5 6.2s-11.7-6-13.8-13.6c-2-7.5 3.5-10.4 3.5-10.4l11 4.6.8 13.2z" fill="#fff"/><path opacity=".1" d="M430.6 320.5l-1.5 6.2s-11.7-6-13.8-13.6c-2-7.5 3.5-10.4 3.5-10.4l11 4.6.8 13.2z" fill="#000"/><path d="M365 532.1s-10.8 4-18.2 4.5c-4 .3-6-2.1-7.1-4.5-.6-1.3-1-2.6-1.1-4l1-10.7.5-5.7 15.7-4.2 2.3 6.9.2.5a80.1 80.1 0 014.6 15c.2.5.5.9.9 1.2.3.4.7.8 1.2 1zM438.8 526.7l-.1 1s-23.1 3.8-27.9 0a12.5 12.5 0 00-9.7-2.9s-9 .2-10.4-2.7c-.6-1.2-.5-3.6 0-6 .3-2.2.8-4.4 1.5-6.6l.4-.2 2-1.8 25-.7h.2c-.2 5.1 8.4 11 8.4 11 9.1 3.3 10.5 7.1 10.6 8.9z" fill="#fff"/><path opacity=".1" d="M438.8 526.7l-.1 1s-23.1 3.8-27.9 0a12.5 12.5 0 00-9.7-2.9s-9 .2-10.4-2.7c-.6-1.2-.5-3.6 0-6 3.4.3 8.8 1.2 11 3.3 3.2 3 8.6 6.2 12 6.4 2.6.2 18.4.7 25 .9zM365 532.1s-10.8 4-18.2 4.5c-4 .3-6-2.1-7.1-4.5 2.7 1 6.6 2 8.6 1a76 76 0 0115.5-2c.3.4.7.7 1.2 1z" fill="#000"/><path d="M381 211.8c-8.9-3.5-20.4-15-17.5-20.3.6-1.3 1-2.8 1.1-4.3a83.6 83.6 0 00-1.1-16s27.8.7 26.2 4.8c-.5 1.2-.5 3.3-.4 5.6a78 78 0 001.8 12.6s-1.7 2.4-2.7 2.5c-1 .2 5.4 20-7.4 15z" fill="#CF6F80"/><path opacity=".1" d="M358.3 514.9l-.3.2c-8.3-10-18.3 2.5-18.3 2.5l-.2-.3.5-5.7 15.8-4 2.2 6.8.3.5zM419.8 507.5s-6-.1-9.3 2.8c-3.3 2.8-19 .6-18.3 0 .2-.4.4-.7.4-1l2.1-1.8 25-.7v.7z" fill="#000"/><path d="M368.6 428.4a19 19 0 00-1 3.5c-.6 3.2-.7 6.5-.5 9.8.3 4.8 0 36.5 0 36.5s-5.3 8.4-8.3 11.4c-3 3 6 8.3 6 8.3 1.4 7.8-6.8 16.5-6.8 16.5-8.3-10.1-18.4 2.4-18.4 2.4s-5.4-9.4-6.8-12.8c-1.4-3.4 5.4-5.7 7.7-7 2.4-1.5-.1-9.6-.1-9.6s-2-7-4.4-13.5c-2.3-6.5 2.6-38.7 2.6-38.7s.3-5.7 1-7.7c.2-1.4.3-3 .1-4.4l-.1-1.2v-.5l3.4-6.3s27.2 9.3 25.6 13.3zM419.8 506.8s-6-.2-9.3 2.7c-3.3 2.8-19 .6-18.3 0 .7-.6.6-5.2.6-5.2-9.1-12.6-1.3-17.7-1.3-17.7s-4.1-19.8-4.8-27.1c-.6-5.1-1.2-19-1.6-26.8l-.2-5.7 7.5-1.5 1-.1 18-3.7a290 290 0 001.1 9.7v5.6l.7 12.7c-.4 1.3-.6 2.7-.7 4l2.5 24.8s4.1 13.8 2.7 14.8c-1.4 1 2 13.5 2 13.5z" fill="#00692C"/><path opacity=".1" d="M389.7 176c-.5 1.2-.5 3.3-.4 5.6a23.1 23.1 0 01-24.6-.4c-.2-3.4-.6-6.7-1.2-10 0 0 27.8.7 26.2 4.8z" fill="#000"/><path d="M400.5 161a23.1 23.1 0 11-46.2.6v-.5a23.1 23.1 0 1146.2 0z" fill="#CF6F80"/><path opacity=".1" d="M381 211.8c-8.9-3.5-20.4-15-17.5-20.3.6-1.3 1-2.8 1.1-4.3l12.2 10 7.6 6.3 5.7-14.7 1 5.4s-1.7 2.4-2.7 2.6c-1 0 5.4 20-7.4 15z" fill="#000"/><path d="M412.6 256.2l-10.2 171.4-13.3.8-34.4-99.3 5.6-118 1.2-25 15.3 12.6 7.6 6.2 5.9-15 11 9.6 11.3 56.7z" fill="#00692C"/><path opacity=".1" d="M368.6 428.4c-.5 1.1-.8 2.3-1 3.5-9.7-1.5-19.1-4.4-28-8.7l-.1-.1V421.4l3.4-6.3s27.3 9.3 25.7 13.3zM392.6 432l-7.5.8-.2-5.7 7.5-1.6.2 6.4zM412.3 427.9a52.4 52.4 0 01-18.9 1.7v-4.2l18-3.7.9 6.2z" fill="#000"/><path opacity=".1" d="M393.3 430.4c-27.7 4.7-53-8.8-53-8.8l.2-4.6s.7-52.1-1-56.1c-1.8-4-3.2-24.3-2.2-27.3 1-3.1-3.6-49.8-3.6-49.8L333 265l-27.3-11 12.2-25.4c1.6-3.6 3-7.3 4.2-11 2.1-6.6 12-13 12-13s10-6.5 14-6.3c4 .3 9.2-5.7 9.2-5.7 3.8-9.8 7.3-5.4 7.3-5.4l-.2 1.5c-1.3 10.7 21.9 44.8 22.2 45.4l2.2 53.9 2.3 68.1 2.2 74.4z" fill="#000"/><path d="M392.6 430.4c-27.7 4.7-53-8.8-53-8.8l.2-4.6s.6-52.1-1.1-56.1c-1.8-4-3.1-24.3-2.1-27.4 1-3.1-3.7-49.7-3.7-49.7l-.7-19-27.2-11 12.1-25.4c1.7-3.5 3-7.2 4.3-11 2-6.5 12-13 12-13s10-6.4 14-6.2c4 .3 9.2-5.7 9.2-5.7 3.8-9.8 8-5.4 8-5.4 0 .5-.3.7-.1 1.5 3 10.4 21 44.8 21.4 45.4l2.2 53.9 2.2 68.2 2.3 74.3z" fill="#fff"/><path opacity=".1" d="M385.1 235.5c-3-1.2-18.7-19.2-18.7-19.2v-4.1c-.6-1.4-4-.6-6.8.4l1.2-25 1.4 1.2c2.9 10.4 22.6 46.1 23 46.7z" fill="#000"/><path d="M385.9 234c-3-1.2-18.8-19.2-18.8-19.2v-4.1c-.6-1.4-4-.6-6.7.4l1.1-24.9 1.4 1.1c3 10.4 22.6 46.1 23 46.8z" fill="#fff"/><path opacity=".1" d="M340.3 324l19.2-2s11.5 22.5 10.7 28c-.7 5.4-2 10.3-6.7 9.4-4.6-.8-24.7.7-24.7.7l1.5-36.1z" fill="#000"/><path d="M339.5 322.5l19.3-2s11.4 22.5 10.7 28c-.8 5.3-2.1 10.3-6.7 9.4-4.6-.9-24.8.7-24.8.7l1.5-36.1z" fill="#fff"/><path d="M353.8 312s17.3 9.3 17.7 12.1c.3 2.8-8.9-1.2-10.8-1.7-1.4-.4-2.7-.6-4-.7l-13.3.4 10.4-10.2z" fill="#CF6F80"/><path opacity=".1" d="M380.3 236.7a1.8 1.8 0 100-3.6 1.8 1.8 0 000 3.6z" fill="#000"/><path d="M380.3 236a1.8 1.8 0 100-3.7 1.8 1.8 0 000 3.7z" fill="#3F3D56"/><path opacity=".1" d="M383.6 315.7a1.8 1.8 0 100-3.6 1.8 1.8 0 000 3.6z" fill="#000"/><path d="M383.6 315a1.8 1.8 0 100-3.7 1.8 1.8 0 000 3.7z" fill="#3F3D56"/><path opacity=".1" d="M382.1 276.2a1.8 1.8 0 100-3.6 1.8 1.8 0 000 3.6z" fill="#000"/><path d="M382.1 275.5a1.8 1.8 0 100-3.7 1.8 1.8 0 000 3.7z" fill="#3F3D56"/><path d="M424.1 321.4s1.3 1.8 0 2.7c-1.2.8.1 3 .1 3s-3 1.8-1.7 3.4c1.4 1.6.5 9 .5 9l-3.7 6.2s.2 4 .2 9.4a72 72 0 01-3.2 25.6l.4 44.1s-13 4.8-24 3.3l-1.6-70.8s2.3-40.2 3.2-47.9c.5-4 .7-8 .6-12 0 0-.3-12.1-1.6-17.7 0 0-1.3-24.3-1.5-31l.3-21.5.5-18.9-2.5-19.5s2.5-.3 3.2.7l1 .9c4.3 2.8 19.4 11.7 19.4 11.7s8.3 3.3 10.3 8c2 4.8 3.4 8.2 4.3 9.5 1 1.4 1.5 7.7 1.5 7.7A50 50 0 00435 241c2.3 2 3.9 14.6 3.9 14.6L419 271S417.3 297 417 298c-.4 1 7.2 23.4 7.2 23.4z" fill="#fff"/><path d="M424.9 321.4s1.2 1.8 0 2.7c-1.3.8 0 3 0 3s-3 1.8-1.6 3.4c1.3 1.6.5 9 .5 9l-3.8 6.2s.3 4 .3 9.4a72 72 0 01-3.2 25.6l.3 44.1s-13 4.8-24 3.3l-1.6-70.8s2.4-40.2 3.3-47.9c.5-4 .7-8 .6-12 0 0-.4-12.1-1.6-17.7 0 0-1.4-24.3-1.5-31 0-3.2 0-12.5.3-21.5l.4-18.9-3.2-19.8s3.2 0 4 1l1 .9c4.3 2.8 19.3 11.7 19.3 11.7s8.3 3.3 10.4 8c2 4.8 3.3 8.2 4.3 9.5 1 1.4 1.5 7.7 1.5 7.7a50 50 0 005.1 13.7c2.2 2 3.8 14.6 3.8 14.6L419.8 271s-1.7 25.9-2.1 26.9c-.4 1 7.2 23.4 7.2 23.4z" fill="#fff"/><path opacity=".1" d="M401.2 214l1.8 5.3-9.4 9.4.5-19-3.3-19.7s3.3 0 4 1l1 .8 8 23-2.6-.7z" fill="#000"/><path d="M400.5 212.6l1.7 5.2-9.3 9.4.4-19-3.3-19.7s3.3 0 4 1l1.1.8 8 23.1-2.6-.8z" fill="#fff"/><path opacity=".1" d="M400.5 161a23 23 0 01-1.2 7.2 1 1 0 01-.7-.1 30 30 0 00-10.6-20.6 7.3 7.3 0 00-5-1.4c-2 .3-3.8 1.7-5.9 1.8-2.7.3-5-1.6-7.8-1.7a7.6 7.6 0 00-5.7 2.7 15.6 15.6 0 00-3 5.7c-1.1 3.1-1.7 6.5-1.8 9.8 0 1.9-.2 4.3-2 5a10 10 0 00-2.5-7.7v-.6a23.1 23.1 0 1146.2 0z" fill="#000"/><path d="M387 124.3c-3.6-1.6-7.5-2-11.3-.8-1.8.5-3.6 1.4-5.5 1.9-4 1-8.8-.1-12.3 2.2-1.9 1.4-3 3.5-4.1 5.6l-2.7 5.2c-1.5 2.8-3 5.6-3.6 8.8-.6 3-.2 6.5 1.7 9 1.4 1.8 3.6 3 5.1 4.7a10.1 10.1 0 012.6 7.7c1.7-.7 1.9-3 2-5 0-3.3.6-6.6 1.6-9.8.7-2 1.7-4 3.1-5.7a7.6 7.6 0 015.7-2.6c2.8 0 5.2 2 7.8 1.7 2-.2 3.9-1.6 6-1.8 1.7-.2 3.5.3 5 1.4a29.8 29.8 0 0110.6 20.5c.7.6 1.8-.2 2.1-1 .4-.9.4-2 1-2.7.5-1 1.5-1.5 2.4-2.2 2-1.8 2.6-4.9 2.5-7.7 0-2.8-.6-5.6 0-8.3.2-1.7 1-3.3 1.3-5 .4-1.6.5-3.4-.4-4.8-1.4-2.1-4.2-2.6-6.7-2.8-2.8-.2-5.3.1-7.1-2.3-.9-1.2-1.8-2.4-2.9-3.4-.3-.4-4-2.6-4-2.8z" fill="#512E4E"/><path opacity=".1" d="M313.5 266.9l-7-13-2.2 20s1.2 9 1 10.4c-.3 1.4 5 13.7 5 13.7s17.7 31.4 24.9 33l24.3-17.4-6.5-8.2s-2.2-.8-2.8 0c0 0-12-20.6-13.2-22.1-1.2-1.5-1-4.5-1-4.5s-1.8-2-1.2-3.8c.6-1.9-3.6-8.4-3.6-8.4l3.9-3.6-21.6 3.9z" fill="#000"/><path d="M306.9 252.3l-1.9 1.5-2.2 20.2s1.2 9 1 10.3c-.3 1.4 5 13.7 5 13.7s17.7 31.4 24.9 33l24.3-17.4-6.4-8.2s-2.3-.8-2.8 0c0 0-12-20.6-13.2-22.1-1.3-1.5-1-4.5-1-4.5s-1.9-2-1.3-3.8c.6-1.9-3.6-8.4-3.6-8.4l3.9-3.6-26.7-10.7z" fill="#fff"/><path opacity=".1" d="M422.5 331.3c1.4 1.6.5 9 .5 9l-3.7 6.2s.2 4 .2 9.3l-6.2 2a3.7 3.7 0 01-4.9-3.7l1.1-34.9 14.6 5.6c-1.2.9.1 3 .1 3s-3 1.8-1.7 3.5z" fill="#000"/><path d="M423.3 330.5c1.3 1.7.5 9 .5 9l-3.8 6.2s.3 4 .3 9.4l-6.4 2a3.6 3.6 0 01-4.7-3.6l1-35L425 324c-1.3.9 0 3 0 3s-3 1.8-1.6 3.4z" fill="#fff"/><path d="M428.1 313.9s-1 6.3-3.5 6.7c-2.5.4-3.6 10.3-6 10-2.5-.4-.9-9.3-.8-11 0-1.7-2.7-8.8-.6-10.4 2-1.7 8.7 0 8.7 0l2.2 4.7z" fill="#CF6F80"/><path opacity=".1" d="M433.4 265l4.6-9.4s2 7.2 2 11c0 3.9 2.5 4.2 2.5 4.2s2.9 3.4 1.4 5.9c-1.5 2.5-2.1 8.6-2.1 8.6s.4 11.7-1.8 13.3c-2.2 1.6-2.7 5.5-2.7 5.5s-4.1 7.3-4 9c.1 1.8-5.7 13.6-5.7 13.6s2.9-14.7-13.8-21c0 0-.1-5 1.1-6.4 1.3-1.3 3.2-2 2-8.9-1.2-6.8-.4-15.1-.4-16.8 0-1.6 3.8-12 3.8-12l13 3.4z" fill="#000"/><path d="M435.4 254.2l4.1 1.4s1.9 7.2 1.9 11c0 3.9 2.6 4.2 2.6 4.2s2.9 3.4 1.4 5.9c-1.5 2.5-2.2 8.6-2.2 8.6s.5 11.7-1.7 13.3c-2.2 1.6-2.7 5.5-2.7 5.5s-4 7.3-4 9c.2 1.8-5.7 13.6-5.7 13.6s2.9-14.7-13.8-21c0 0 0-5 1.1-6.4 1.3-1.3 3.2-2 2-8.9-1.2-6.8-.3-15.1-.3-16.8 0-1.6 3.7-12 3.7-12l13.6-7.4z" fill="#fff"/><path opacity=".1" d="M345 499.5s6.6-4.1 10.8-1.1c4.3 3-10.8 1.1-10.8 1.1zM395.7 486.8s5.8-.7 10.7 4.5c4.8 5.2-10.7-4.5-10.7-4.5z" fill="#000"/><g opacity=".1" fill="#000"><path opacity=".1" d="M404.2 159.9c-.9.7-2 1.2-2.5 2.2-.5.8-.5 1.8-.9 2.7-.3.9-1.4 1.6-2.2 1a30 30 0 00-10.6-20.5 7.3 7.3 0 00-5-1.4c-2 .3-3.8 1.6-5.9 1.8-2.7.2-5-1.6-7.8-1.7a7.6 7.6 0 00-5.7 2.6 15.7 15.7 0 00-3 5.7c-1.1 3.2-1.7 6.5-1.8 9.9 0 1.9-.2 4.2-2 5v1.4c1.8-.7 2-3 2-5 .1-3.3.7-6.6 1.8-9.8.6-2 1.6-4 3-5.7a7.6 7.6 0 015.8-2.6c2.7 0 5.1 2 7.8 1.7 2-.2 3.8-1.6 5.8-1.8 1.8-.2 3.6.3 5 1.4a29.8 29.8 0 0110.6 20.5c.8.6 1.9-.2 2.3-1 .3-.9.4-2 .8-2.7.6-1 1.7-1.5 2.5-2.2 2-1.8 2.6-4.9 2.5-7.7v-.2c-.1 2.4-.7 4.8-2.5 6.4z"/><path opacity=".1" d="M354.3 159.4c-1.5-1.7-3.7-2.8-5-4.7a9.8 9.8 0 01-2-5.5c-.3 2.5.4 5 2 7 1.3 1.9 3.5 3 5 4.7 1.5 1.7 2.4 3.8 2.6 6a10.2 10.2 0 00-2.6-7.5zM408 139l-1.4 4.9c-.2 1.1-.2 2.3-.2 3.4l.2-1.9c.3-1.7 1-3.2 1.4-4.9.3-1 .4-1.9.3-2.8 0 .4-.1.9-.3 1.3z"/></g><defs><linearGradient id="paint0_linear" x1="106.4" y1="519.5" x2="106.4" y2="129.1" gradientUnits="userSpaceOnUse"><stop stop-color="gray" stop-opacity=".3"/><stop offset=".5" stop-color="gray" stop-opacity=".1"/><stop offset="1" stop-color="gray" stop-opacity=".1"/></linearGradient></defs></svg>